<?xml version="1.0" standalone="no"?>
<!DOCTYPE svg PUBLIC "-//W3C//DTD SVG 20010904//EN"
 "http://www.w3.org/TR/2001/REC-SVG-20010904/DTD/svg10.dtd">
<svg version="1.0" xmlns="http://www.w3.org/2000/svg"
 width="100.000000pt" height="100.000000pt" viewBox="0 0 100.000000 100.000000"
 preserveAspectRatio="xMidYMid meet">

<g transform="translate(0.000000,100.000000) scale(0.100000,-0.100000)"
fill="#000000" stroke="none">
<path d="M469 614 l-216 -216 -42 -105 c-24 -61 -38 -110 -33 -115 5 -5 54 9
113 32 l105 41 217 217 c165 165 217 224 217 243 0 50 -69 119 -119 119 -19 0
-77 -52 -242 -216z m281 181 c29 -15 60 -60 60 -88 0 -18 -34 -49 -44 -40 -4
5 -6 2 -4 -6 7 -31 -21 -18 -72 34 l-54 55 29 30 c33 34 44 36 85 15z m-61
-109 c33 -33 51 -59 46 -66 -5 -8 -26 7 -66 46 -51 51 -64 74 -41 74 4 0 32
-24 61 -54z m-214 -176 c-106 -106 -163 -156 -169 -150 -7 7 43 64 149 173
l160 162 -162 -160 c-89 -87 -166 -156 -170 -152 -4 4 65 80 152 167 160 160
160 160 180 140 l20 -20 -160 -160z m180 140 c4 -6 1 -19 -7 -28 -12 -15 -11
-16 5 -3 16 13 20 12 37 -5 20 -19 18 -21 -140 -179 -158 -158 -159 -159 -180
-140 l-21 19 143 145 143 146 -145 -143 c-116 -113 -148 -140 -158 -130 -10
10 20 45 145 170 87 87 161 158 165 158 4 0 10 -5 13 -10z m-332 -407 c-60
-27 -66 -28 -88 -3 -17 19 -17 22 5 75 l23 56 54 -53 54 -53 -48 -22z m-88
-24 c0 -7 -8 -15 -17 -17 -18 -3 -25 18 -11 32 10 10 28 1 28 -15z"/>
<path d="M700 728 c41 -45 50 -53 50 -45 0 2 -21 23 -47 47 l-48 45 45 -47z"/>
<path d="M550 473 l-135 -138 138 135 c127 125 142 140 134 140 -1 0 -63 -62
-137 -137z"/>
</g>
</svg>
