<?xml version="1.0" standalone="no"?>
<!DOCTYPE svg PUBLIC "-//W3C//DTD SVG 20010904//EN"
 "http://www.w3.org/TR/2001/REC-SVG-20010904/DTD/svg10.dtd">
<svg version="1.0" xmlns="http://www.w3.org/2000/svg"
 width="100.000000pt" height="100.000000pt" viewBox="0 0 100.000000 100.000000"
 preserveAspectRatio="xMidYMid meet">

<g transform="translate(0.000000,100.000000) scale(0.100000,-0.100000)"
fill="#000000" stroke="none">
<path d="M245 821 c-11 -5 -31 -21 -45 -36 l-25 -27 0 -259 0 -259 33 -32 32
-33 260 0 260 0 32 33 33 32 0 260 0 260 -33 32 -32 33 -248 2 c-136 1 -256
-2 -267 -6z m514 -25 c47 -25 51 -48 51 -296 0 -248 -4 -271 -51 -296 -37 -19
-474 -21 -514 -2 -51 23 -55 47 -55 300 1 249 4 268 51 294 36 20 479 20 518
0z"/>
<path d="M242 757 c-21 -23 -22 -31 -22 -258 0 -233 0 -236 23 -257 23 -21 31
-22 258 -22 296 0 280 -9 277 161 l-2 114 -5 -118 c-5 -102 -9 -121 -25 -133
-16 -11 -67 -14 -248 -14 -215 0 -229 1 -248 20 -19 19 -20 33 -20 248 0 181
3 232 14 248 13 17 31 19 223 24 l208 6 -206 2 c-203 2 -206 2 -227 -21z"/>
<path d="M565 530 l-90 -90 -55 55 c-58 57 -77 66 -87 39 -4 -11 16 -38 63
-85 38 -38 73 -69 79 -69 6 0 57 47 114 104 73 73 102 109 98 120 -11 29 -32
17 -122 -74z m115 68 c0 -15 -190 -208 -205 -208 -14 0 -135 122 -135 137 0
25 25 12 80 -42 l55 -55 90 90 c85 85 115 106 115 78z"/>
<path d="M771 594 c0 -11 3 -14 6 -6 3 7 2 16 -1 19 -3 4 -6 -2 -5 -13z"/>
<path d="M772 545 c0 -16 2 -22 5 -12 2 9 2 23 0 30 -3 6 -5 -1 -5 -18z"/>
</g>
</svg>
