<?xml version="1.0" standalone="no"?>
<!DOCTYPE svg PUBLIC "-//W3C//DTD SVG 20010904//EN"
 "http://www.w3.org/TR/2001/REC-SVG-20010904/DTD/svg10.dtd">
<svg version="1.0" xmlns="http://www.w3.org/2000/svg"
 width="100.000000pt" height="100.000000pt" viewBox="0 0 100.000000 100.000000"
 preserveAspectRatio="xMidYMid meet">

<g transform="translate(0.000000,100.000000) scale(0.100000,-0.100000)"
fill="#000000" stroke="none">
<path d="M210 787 c0 -23 8 -41 25 -57 30 -28 31 -41 5 -65 -28 -25 -29 -124
-1 -149 17 -16 20 -35 23 -157 l3 -139 33 -32 32 -33 170 0 170 0 32 33 33 32
3 139 c3 122 6 141 23 157 28 25 27 124 -1 149 -26 24 -25 37 5 65 17 16 25
34 25 57 l0 33 -290 0 -290 0 0 -33z m560 -5 c0 -10 -11 -29 -25 -42 l-25 -23
0 -234 c0 -143 -4 -242 -10 -254 -10 -18 -23 -19 -210 -19 -187 0 -200 1 -210
19 -6 12 -10 111 -10 254 l0 234 -26 24 -26 24 239 5 238 6 -237 2 c-151 1
-238 6 -238 12 0 6 97 10 270 10 255 0 270 -1 270 -18z m-510 -193 c0 -44 -4
-68 -10 -64 -18 11 -12 135 7 135 2 0 3 -32 3 -71z m500 1 c0 -32 -4 -62 -10
-65 -6 -4 -10 20 -10 65 0 45 4 69 10 65 6 -3 10 -33 10 -65z m-90 -405 c-36
-21 -308 -21 -336 0 -17 13 2 14 171 14 170 0 187 -1 165 -14z"/>
<path d="M728 773 c7 -3 16 -2 19 1 4 3 -2 6 -13 5 -11 0 -14 -3 -6 -6z"/>
<path d="M327 724 c-4 -4 -6 -75 -5 -158 l2 -151 6 150 c4 124 8 150 20 150
13 0 15 -32 15 -225 0 -193 -2 -225 -15 -225 -8 0 -18 13 -22 30 -6 29 -6 29
-5 -5 2 -30 5 -35 27 -35 l25 0 0 235 c0 229 -1 235 -20 238 -12 2 -24 0 -28
-4z"/>
<path d="M425 718 c-3 -7 -4 -115 -3 -238 l3 -225 25 0 25 0 0 235 0 235 -23
3 c-12 2 -24 -3 -27 -10z m40 -229 c0 -192 -2 -224 -15 -224 -13 0 -15 32 -18
215 -1 118 0 221 3 228 3 8 11 12 18 9 9 -3 12 -57 12 -228z"/>
<path d="M525 718 c-3 -7 -4 -115 -3 -238 l3 -225 25 0 25 0 0 235 0 235 -23
3 c-12 2 -24 -3 -27 -10z m40 -229 c0 -192 -2 -224 -15 -224 -13 0 -15 32 -18
215 -1 118 0 221 3 228 3 8 11 12 18 9 9 -3 12 -57 12 -228z"/>
<path d="M625 718 c-3 -7 -4 -115 -3 -238 l3 -225 25 0 25 0 0 235 0 235 -23
3 c-12 2 -24 -3 -27 -10z m40 -229 c0 -192 -2 -224 -15 -224 -13 0 -15 32 -18
215 -1 118 0 221 3 228 3 8 11 12 18 9 9 -3 12 -57 12 -228z"/>
<path d="M322 380 c0 -14 2 -19 5 -12 2 6 2 18 0 25 -3 6 -5 1 -5 -13z"/>
</g>
</svg>
