<?xml version="1.0" standalone="no"?>
<!DOCTYPE svg PUBLIC "-//W3C//DTD SVG 20010904//EN"
 "http://www.w3.org/TR/2001/REC-SVG-20010904/DTD/svg10.dtd">
<svg version="1.0" xmlns="http://www.w3.org/2000/svg"
 width="100.000000pt" height="100.000000pt" viewBox="0 0 100.000000 100.000000"
 preserveAspectRatio="xMidYMid meet">

<g transform="translate(0.000000,100.000000) scale(0.100000,-0.100000)"
fill="#000000" stroke="none">
<path d="M383 872 c-88 -31 -162 -94 -202 -169 -10 -20 -6 -26 46 -68 l57 -47
44 51 c92 107 192 132 301 77 l54 -28 -43 -37 c-34 -30 -40 -39 -29 -48 17
-13 248 -67 256 -60 3 3 10 60 15 127 13 145 9 153 -54 116 l-44 -26 -30 31
c-16 16 -57 44 -92 61 -82 41 -198 49 -279 20z m213 -37 c27 -8 64 -24 83 -36
l34 -20 -20 -21 c-19 -19 -22 -19 -51 -4 -22 11 -29 21 -25 32 5 14 3 15 -15
5 -28 -15 -35 -14 -29 3 10 24 -5 26 -24 3 l-19 -22 6 28 c8 34 -11 36 -20 2
-5 -18 -13 -25 -32 -25 -13 0 -41 -7 -62 -15 -24 -10 -38 -12 -40 -5 -6 18
-21 11 -24 -12 -2 -16 -9 -22 -20 -20 -13 2 -18 -4 -18 -19 0 -17 -3 -19 -13
-10 -19 15 -29 3 -17 -20 20 -36 -28 -33 -58 4 -9 11 -4 22 23 55 85 99 213
136 341 97z m134 -84 c0 -5 -7 -12 -16 -15 -14 -5 -15 -4 -4 9 14 17 20 19 20
6z m120 -15 c0 -8 -9 -18 -20 -21 -23 -7 -27 -25 -5 -25 18 0 20 -16 3 -24
-10 -5 -10 -7 0 -12 6 -3 12 -19 12 -35 0 -25 -4 -29 -26 -29 -17 0 -28 6 -31
20 -6 23 -19 26 -26 8 -3 -8 -6 -6 -6 5 -1 20 -10 22 -25 3 -7 -8 -20 -11 -35
-7 -24 6 -23 7 13 34 31 24 35 31 26 48 -9 15 -7 21 5 25 8 4 22 1 29 -5 11
-9 22 -7 48 9 39 24 38 24 38 6z"/>
<path d="M770 680 c0 -5 5 -10 10 -10 6 0 10 5 10 10 0 6 -4 10 -10 10 -5 0
-10 -4 -10 -10z"/>
<path d="M135 598 c-40 -23 -47 -64 -15 -93 40 -36 100 -15 100 34 0 50 -45
81 -85 59z m42 -44 c8 -20 -8 -36 -26 -25 -15 10 -8 41 9 41 6 0 13 -7 17 -16z"/>
<path d="M831 507 c-33 -17 -45 -39 -37 -70 7 -31 39 -51 66 -42 51 16 66 69
30 105 -23 23 -27 24 -59 7z m36 -61 c-4 -9 -11 -16 -17 -16 -17 0 -24 31 -9
41 18 11 34 -5 26 -25z"/>
<path d="M146 413 c-13 -66 -18 -231 -8 -237 6 -4 30 5 52 19 l41 26 35 -31
c116 -101 287 -121 431 -48 64 31 173 133 173 161 0 15 -99 97 -117 97 -5 0
-29 -23 -53 -51 -102 -121 -216 -148 -330 -78 l-35 21 39 33 c23 19 37 38 34
46 -5 12 -209 70 -245 69 -6 0 -14 -12 -17 -27z m84 -38 c0 -18 16 -20 23 -2
3 6 6 2 6 -10 1 -25 21 -32 21 -8 0 16 12 18 48 9 22 -6 21 -7 -14 -38 l-37
-32 24 -23 c83 -79 209 -98 309 -49 30 15 56 23 58 18 7 -19 24 -10 19 10 -4
17 -2 20 13 15 15 -5 17 -2 12 17 -5 21 -4 22 13 8 17 -14 18 -13 12 11 -5 18
-2 31 8 39 19 16 37 3 29 -22 -5 -17 -3 -20 11 -14 15 5 16 4 5 -9 -15 -18 0
-20 19 -2 8 7 7 2 -2 -13 -24 -37 -109 -99 -169 -122 -71 -28 -195 -30 -214
-4 -7 10 -17 15 -23 11 -6 -3 -11 1 -11 9 0 9 -4 16 -10 16 -5 0 -10 -4 -10
-10 0 -5 -4 -10 -10 -10 -5 0 -10 9 -10 20 0 22 -15 27 -23 8 -3 -7 -6 -2 -6
11 -1 15 -6 21 -15 18 -10 -4 -12 1 -9 16 5 18 3 20 -8 10 -10 -10 -16 -9 -30
3 -17 15 -21 14 -54 -6 -39 -24 -47 -18 -12 11 21 18 21 18 2 19 -17 0 -18 2
-5 11 11 8 12 12 3 16 -8 2 -13 22 -13 44 0 35 3 39 25 39 16 0 25 -6 25 -15z"/>
<path d="M610 180 c0 -5 5 -10 11 -10 5 0 7 5 4 10 -3 6 -8 10 -11 10 -2 0 -4
-4 -4 -10z"/>
</g>
</svg>
