<?xml version="1.0" standalone="no"?>
<!DOCTYPE svg PUBLIC "-//W3C//DTD SVG 20010904//EN"
 "http://www.w3.org/TR/2001/REC-SVG-20010904/DTD/svg10.dtd">
<svg version="1.0" xmlns="http://www.w3.org/2000/svg"
 width="96.000000pt" height="96.000000pt" viewBox="0 0 96.000000 96.000000"
 preserveAspectRatio="xMidYMid meet">

<g transform="translate(0.000000,96.000000) scale(0.100000,-0.100000)"
fill="#000000" stroke="none">
<path d="M150 480 l0 -330 330 0 330 0 0 263 0 263 -68 67 -68 67 -262 0 -262
0 0 -330z m150 180 l0 -90 180 0 180 0 0 82 0 82 45 -44 45 -44 0 -218 0 -218
-30 0 -30 0 0 135 0 135 -210 0 -210 0 0 -135 0 -135 -30 0 -30 0 0 270 0 270
45 0 45 0 0 -90z m180 60 c0 -27 3 -30 30 -30 27 0 30 3 30 30 0 27 3 30 30
30 l30 0 0 -60 0 -60 -120 0 -120 0 0 60 0 60 60 0 60 0 0 -30z m150 -405 l0
-105 -150 0 -150 0 0 105 0 105 150 0 150 0 0 -105z"/>
</g>
</svg>
